<svg xmlns="http://www.w3.org/2000/svg" xmlns:xlink="http://www.w3.org/1999/xlink" width="2000" zoomAndPan="magnify" viewBox="0 0 1500 1499.999933" height="2000" preserveAspectRatio="xMidYMid meet" version="1.0"><defs><g/><clipPath id="8c972e3c97"><rect x="0" width="550" y="0" height="185"/></clipPath><clipPath id="22bcdbe297"><rect x="0" width="304" y="0" height="88"/></clipPath><clipPath id="7af14e9508"><path d="M 517 449.632812 L 994 449.632812 L 994 775.101562 L 517 775.101562 Z M 517 449.632812 " clip-rule="nonzero"/></clipPath></defs><g transform="matrix(1, 0, 0, 1, 475, 820)"><g clip-path="url(#8c972e3c97)"><g fill="#000000" fill-opacity="1"><g transform="translate(1.483957, 147.920717)"><g><path d="M 53.640625 -113.0625 C 68.085938 -113.0625 75.3125 -105.375 75.3125 -90 L 75.3125 -23.0625 C 75.3125 -7.6875 68.085938 0 53.640625 0 L 8.734375 0 L 8.734375 -113.0625 Z M 50.859375 -20.265625 L 50.859375 -92.96875 C 50.859375 -93.894531 50.535156 -94.707031 49.890625 -95.40625 C 49.253906 -96.113281 48.46875 -96.46875 47.53125 -96.46875 L 33.203125 -96.46875 L 33.203125 -16.78125 L 47.53125 -16.78125 C 48.46875 -16.78125 49.253906 -17.128906 49.890625 -17.828125 C 50.535156 -18.523438 50.859375 -19.335938 50.859375 -20.265625 Z M 50.859375 -20.265625 "/></g></g></g><g fill="#000000" fill-opacity="1"><g transform="translate(86.237613, 147.920717)"><g><path d="M 53.640625 -114.8125 C 68.085938 -114.8125 75.3125 -107.125 75.3125 -91.75 L 75.3125 0 L 50.859375 0 L 50.859375 -37.921875 L 33.203125 -37.921875 L 33.203125 0 L 8.734375 0 L 8.734375 -91.75 C 8.734375 -107.125 15.957031 -114.8125 30.40625 -114.8125 Z M 33.203125 -56.796875 L 50.859375 -56.796875 L 50.859375 -94.71875 C 50.859375 -95.644531 50.535156 -96.457031 49.890625 -97.15625 C 49.253906 -97.851562 48.46875 -98.203125 47.53125 -98.203125 L 36.515625 -98.203125 C 35.585938 -98.203125 34.800781 -97.851562 34.15625 -97.15625 C 33.519531 -96.457031 33.203125 -95.644531 33.203125 -94.71875 Z M 33.203125 -56.796875 "/></g></g></g><g fill="#000000" fill-opacity="1"><g transform="translate(170.991268, 147.920717)"><g><path d="M 50.5 -113.0625 L 72.171875 -113.0625 L 85.28125 -27.953125 L 95.0625 -113.0625 L 118.828125 -113.0625 L 100.484375 0 L 72.703125 0 L 61.34375 -69.375 L 49.984375 0 L 22.1875 0 L 3.84375 -113.0625 L 27.609375 -113.0625 L 37.390625 -27.953125 Z M 50.5 -113.0625 "/></g></g></g><g fill="#000000" fill-opacity="1"><g transform="translate(294.539385, 147.920717)"><g><path d="M 75.3125 -91.75 L 75.3125 -21.3125 C 75.3125 -5.9375 68.085938 1.75 53.640625 1.75 L 30.40625 1.75 C 15.957031 1.75 8.734375 -5.9375 8.734375 -21.3125 L 8.734375 -91.75 C 8.734375 -107.125 15.957031 -114.8125 30.40625 -114.8125 L 53.640625 -114.8125 C 68.085938 -114.8125 75.3125 -107.125 75.3125 -91.75 Z M 50.859375 -18.53125 L 50.859375 -94.71875 C 50.859375 -95.644531 50.535156 -96.457031 49.890625 -97.15625 C 49.253906 -97.851562 48.46875 -98.203125 47.53125 -98.203125 L 36.515625 -98.203125 C 35.585938 -98.203125 34.800781 -97.851562 34.15625 -97.15625 C 33.519531 -96.457031 33.203125 -95.644531 33.203125 -94.71875 L 33.203125 -18.53125 C 33.203125 -17.59375 33.519531 -16.773438 34.15625 -16.078125 C 34.800781 -15.378906 35.585938 -15.03125 36.515625 -15.03125 L 47.53125 -15.03125 C 48.46875 -15.03125 49.253906 -15.378906 49.890625 -16.078125 C 50.535156 -16.773438 50.859375 -17.59375 50.859375 -18.53125 Z M 50.859375 -18.53125 "/></g></g></g><g fill="#000000" fill-opacity="1"><g transform="translate(379.118311, 147.920717)"><g><path d="M 75.3125 -91.75 L 75.3125 -21.3125 C 75.3125 -5.9375 68.085938 1.75 53.640625 1.75 L 30.40625 1.75 C 15.957031 1.75 8.734375 -5.9375 8.734375 -21.3125 L 8.734375 -91.75 C 8.734375 -107.125 15.957031 -114.8125 30.40625 -114.8125 L 53.640625 -114.8125 C 68.085938 -114.8125 75.3125 -107.125 75.3125 -91.75 Z M 50.859375 -18.53125 L 50.859375 -94.71875 C 50.859375 -95.644531 50.535156 -96.457031 49.890625 -97.15625 C 49.253906 -97.851562 48.46875 -98.203125 47.53125 -98.203125 L 36.515625 -98.203125 C 35.585938 -98.203125 34.800781 -97.851562 34.15625 -97.15625 C 33.519531 -96.457031 33.203125 -95.644531 33.203125 -94.71875 L 33.203125 -18.53125 C 33.203125 -17.59375 33.519531 -16.773438 34.15625 -16.078125 C 34.800781 -15.378906 35.585938 -15.03125 36.515625 -15.03125 L 47.53125 -15.03125 C 48.46875 -15.03125 49.253906 -15.378906 49.890625 -16.078125 C 50.535156 -16.773438 50.859375 -17.59375 50.859375 -18.53125 Z M 50.859375 -18.53125 "/></g></g></g><g fill="#000000" fill-opacity="1"><g transform="translate(463.697238, 147.920717)"><g><path d="M 53.640625 -113.0625 C 68.085938 -113.0625 75.3125 -105.375 75.3125 -90 L 75.3125 -23.0625 C 75.3125 -7.6875 68.085938 0 53.640625 0 L 8.734375 0 L 8.734375 -113.0625 Z M 50.859375 -20.265625 L 50.859375 -92.96875 C 50.859375 -93.894531 50.535156 -94.707031 49.890625 -95.40625 C 49.253906 -96.113281 48.46875 -96.46875 47.53125 -96.46875 L 33.203125 -96.46875 L 33.203125 -16.78125 L 47.53125 -16.78125 C 48.46875 -16.78125 49.253906 -17.128906 49.890625 -17.828125 C 50.535156 -18.523438 50.859375 -19.335938 50.859375 -20.265625 Z M 50.859375 -20.265625 "/></g></g></g></g></g><g transform="matrix(1, 0, 0, 1, 598, 1024)"><g clip-path="url(#22bcdbe297)"><g fill="#96989a" fill-opacity="1"><g transform="translate(1.754327, 69.118909)"><g><path d="M 25.734375 -54.234375 C 32.660156 -54.234375 36.125 -50.539062 36.125 -43.15625 L 36.125 -11.0625 C 36.125 -3.6875 32.660156 0 25.734375 0 L 4.1875 0 L 4.1875 -54.234375 Z M 24.390625 -9.71875 L 24.390625 -44.59375 C 24.390625 -45.039062 24.234375 -45.429688 23.921875 -45.765625 C 23.617188 -46.097656 23.242188 -46.265625 22.796875 -46.265625 L 15.921875 -46.265625 L 15.921875 -8.046875 L 22.796875 -8.046875 C 23.242188 -8.046875 23.617188 -8.210938 23.921875 -8.546875 C 24.234375 -8.878906 24.390625 -9.269531 24.390625 -9.71875 Z M 24.390625 -9.71875 "/></g></g></g><g fill="#96989a" fill-opacity="1"><g transform="translate(42.822362, 69.118909)"><g><path d="M 15.921875 -9.71875 L 28.921875 -9.71875 L 28.921875 0 L 4.1875 0 L 4.1875 -54.234375 L 28.921875 -54.234375 L 28.921875 -44.671875 L 15.921875 -44.671875 L 15.921875 -31.9375 L 28.078125 -31.9375 L 28.078125 -22.71875 L 15.921875 -22.71875 Z M 15.921875 -9.71875 "/></g></g></g><g fill="#96989a" fill-opacity="1"><g transform="translate(74.754854, 69.118909)"><g><path d="M 26.0625 -54.234375 L 37.375 -54.234375 L 26.15625 0 L 12.65625 0 L 1.421875 -54.234375 L 12.828125 -54.234375 L 19.4375 -14.671875 Z M 26.0625 -54.234375 "/></g></g></g><g fill="#96989a" fill-opacity="1"><g transform="translate(114.146605, 69.118909)"><g><path d="M 34.28125 -39.984375 L 23.125 -39.984375 L 23.125 -44.25 C 23.125 -44.695312 22.96875 -45.085938 22.65625 -45.421875 C 22.351562 -45.753906 21.984375 -45.921875 21.546875 -45.921875 L 16.9375 -45.921875 C 16.488281 -45.921875 16.109375 -45.753906 15.796875 -45.421875 C 15.492188 -45.085938 15.34375 -44.695312 15.34375 -44.25 L 15.34375 -34.609375 C 15.34375 -34.160156 15.492188 -33.769531 15.796875 -33.4375 C 16.109375 -33.101562 16.488281 -32.9375 16.9375 -32.9375 L 24.46875 -32.9375 C 31.394531 -32.820312 34.859375 -29.132812 34.859375 -21.875 L 34.859375 -10.21875 C 34.859375 -2.84375 31.394531 0.84375 24.46875 0.84375 L 14.578125 0.84375 C 7.648438 0.84375 4.1875 -2.84375 4.1875 -10.21875 L 4.1875 -15.84375 L 15.34375 -15.84375 L 15.34375 -9.8125 C 15.34375 -9.363281 15.492188 -8.96875 15.796875 -8.625 C 16.109375 -8.289062 16.488281 -8.125 16.9375 -8.125 L 22.125 -8.125 C 22.570312 -8.125 22.945312 -8.289062 23.25 -8.625 C 23.5625 -8.96875 23.71875 -9.363281 23.71875 -9.8125 L 23.71875 -20.453125 C 23.71875 -20.898438 23.5625 -21.289062 23.25 -21.625 C 22.945312 -21.957031 22.570312 -22.125 22.125 -22.125 L 14.578125 -22.125 C 7.648438 -22.125 4.1875 -25.8125 4.1875 -33.1875 L 4.1875 -44 C 4.1875 -51.375 7.648438 -55.0625 14.578125 -55.0625 L 23.890625 -55.0625 C 30.816406 -55.0625 34.28125 -51.375 34.28125 -44 Z M 34.28125 -39.984375 "/></g></g></g><g fill="#96989a" fill-opacity="1"><g transform="translate(152.951686, 69.118909)"><g><path d="M 25.3125 -54.234375 C 32.238281 -54.234375 35.703125 -50.539062 35.703125 -43.15625 L 35.703125 -32.359375 C 35.703125 -24.972656 32.238281 -21.28125 25.3125 -21.28125 L 15.84375 -21.28125 L 15.84375 0 L 4.109375 0 L 4.109375 -54.234375 Z M 23.96875 -31.015625 L 23.96875 -44.5 C 23.96875 -44.945312 23.8125 -45.335938 23.5 -45.671875 C 23.195312 -46.015625 22.820312 -46.1875 22.375 -46.1875 L 15.84375 -46.1875 L 15.84375 -29.328125 L 22.375 -29.328125 C 22.820312 -29.328125 23.195312 -29.492188 23.5 -29.828125 C 23.8125 -30.171875 23.96875 -30.566406 23.96875 -31.015625 Z M 23.96875 -31.015625 "/></g></g></g><g fill="#96989a" fill-opacity="1"><g transform="translate(190.751014, 69.118909)"><g><path d="M 25.734375 -55.0625 C 32.660156 -55.0625 36.125 -51.375 36.125 -44 L 36.125 0 L 24.390625 0 L 24.390625 -18.1875 L 15.921875 -18.1875 L 15.921875 0 L 4.1875 0 L 4.1875 -44 C 4.1875 -51.375 7.648438 -55.0625 14.578125 -55.0625 Z M 15.921875 -27.234375 L 24.390625 -27.234375 L 24.390625 -45.421875 C 24.390625 -45.867188 24.234375 -46.257812 23.921875 -46.59375 C 23.617188 -46.9375 23.242188 -47.109375 22.796875 -47.109375 L 17.515625 -47.109375 C 17.066406 -47.109375 16.6875 -46.9375 16.375 -46.59375 C 16.070312 -46.257812 15.921875 -45.867188 15.921875 -45.421875 Z M 15.921875 -27.234375 "/></g></g></g><g fill="#96989a" fill-opacity="1"><g transform="translate(231.81905, 69.118909)"><g><path d="M 24.390625 -8.890625 L 24.390625 -17.265625 L 35.53125 -17.265625 L 35.53125 -10.21875 C 35.53125 -2.84375 32.066406 0.84375 25.140625 0.84375 L 14.578125 0.84375 C 7.648438 0.84375 4.1875 -2.84375 4.1875 -10.21875 L 4.1875 -44 C 4.1875 -51.375 7.648438 -55.0625 14.578125 -55.0625 L 25.140625 -55.0625 C 32.066406 -55.0625 35.53125 -51.375 35.53125 -44 L 35.53125 -38.890625 L 24.390625 -38.890625 L 24.390625 -45.421875 C 24.390625 -45.867188 24.234375 -46.257812 23.921875 -46.59375 C 23.617188 -46.9375 23.242188 -47.109375 22.796875 -47.109375 L 17.515625 -47.109375 C 17.066406 -47.109375 16.6875 -46.9375 16.375 -46.59375 C 16.070312 -46.257812 15.921875 -45.867188 15.921875 -45.421875 L 15.921875 -8.890625 C 15.921875 -8.441406 16.070312 -8.046875 16.375 -7.703125 C 16.6875 -7.367188 17.066406 -7.203125 17.515625 -7.203125 L 22.796875 -7.203125 C 23.242188 -7.203125 23.617188 -7.367188 23.921875 -7.703125 C 24.234375 -8.046875 24.390625 -8.441406 24.390625 -8.890625 Z M 24.390625 -8.890625 "/></g></g></g><g fill="#96989a" fill-opacity="1"><g transform="translate(270.624131, 69.118909)"><g><path d="M 15.921875 -9.71875 L 28.921875 -9.71875 L 28.921875 0 L 4.1875 0 L 4.1875 -54.234375 L 28.921875 -54.234375 L 28.921875 -44.671875 L 15.921875 -44.671875 L 15.921875 -31.9375 L 28.078125 -31.9375 L 28.078125 -22.71875 L 15.921875 -22.71875 Z M 15.921875 -9.71875 "/></g></g></g></g></g><g clip-path="url(#7af14e9508)"><path fill="#000000" d="M 607.980469 677.492188 L 607.980469 775.128906 L 729.339844 775.128906 C 754.753906 775.128906 778.085938 770.949219 799.3125 762.570312 C 803.980469 760.726562 808.5 758.734375 812.890625 756.601562 C 781.921875 750.226562 748.570312 740.660156 714.472656 727.949219 C 710.574219 726.5 706.699219 725.011719 702.863281 723.507812 L 664.714844 723.507812 L 664.714844 707.265625 C 644.257812 697.824219 625.230469 687.800781 607.980469 677.492188 M 664.691406 660.503906 L 664.691406 530.667969 C 700.023438 536.625 740.582031 547.570312 782.605469 563.230469 C 797.09375 568.632812 811.074219 574.339844 824.449219 580.269531 L 821.296875 569.1875 C 809.8125 564.203125 797.9375 559.40625 785.722656 554.851562 C 743.132812 538.972656 701.726562 528.019531 664.679688 522.035156 L 664.679688 501.222656 L 729 501.222656 C 746.121094 501.222656 761.621094 504.011719 775.652344 509.589844 C 789.597656 515.246094 801.535156 522.996094 811.300781 533.003906 C 821.070312 542.925781 828.742188 554.699219 834.15625 568.265625 C 839.582031 581.757812 842.292969 596.640625 842.292969 612.832031 C 842.292969 629.039062 839.582031 643.917969 834.15625 657.398438 C 828.730469 670.964844 821.070312 682.664062 811.300781 692.433594 C 804.917969 698.871094 797.597656 704.347656 789.394531 708.90625 C 771.765625 703.855469 753.53125 697.875 735.019531 690.96875 C 709.855469 681.582031 686.207031 671.269531 664.691406 660.503906 Z M 922.667969 641.382812 C 926.578125 630.894531 938.238281 625.554688 948.726562 629.46875 C 959.210938 633.378906 964.539062 645.042969 960.636719 655.53125 C 956.738281 666.019531 945.066406 671.34375 934.578125 667.445312 C 924.09375 663.53125 918.753906 651.871094 922.667969 641.382812 Z M 902.285156 611.496094 C 902.234375 588.714844 898.058594 567.445312 889.730469 547.734375 C 881.363281 527.890625 869.5 510.691406 854.15625 496.113281 C 838.824219 481.535156 820.539062 470.136719 799.300781 461.921875 C 778.074219 453.707031 754.742188 449.601562 729.328125 449.601562 L 607.980469 449.601562 L 607.980469 627.828125 C 563.40625 597.890625 538.761719 568.152344 546.308594 547.898438 C 551.140625 534.921875 568.519531 527.652344 594.402344 525.824219 L 594.402344 516.824219 C 554.433594 518.210938 526.671875 528.890625 519.164062 549.046875 C 502.265625 594.40625 594.210938 670.5625 724.542969 719.128906 C 854.875 767.695312 974.21875 770.308594 991.125 724.933594 C 997.800781 707.011719 987.480469 684.28125 964.511719 660.339844 C 962.972656 663.316406 960.902344 665.890625 958.46875 667.976562 C 970.429688 682.464844 975.328125 695.691406 971.363281 706.292969 C 963.148438 728.328125 918.792969 733.90625 858.042969 724.355469 C 871.535156 710.609375 882.109375 694.582031 889.753906 676.292969 C 896.960938 659.078125 901.0625 640.761719 902.058594 621.378906 C 908.570312 625.542969 914.691406 629.707031 920.421875 633.859375 C 922.0625 631.460938 924.082031 629.40625 926.351562 627.726562 C 918.84375 622.285156 910.816406 616.859375 902.285156 611.496094 Z M 902.285156 611.496094 " fill-opacity="1" fill-rule="nonzero"/></g></svg>